<?xml version="1.0" encoding="UTF-8"?>
<svg width="176px" height="128px" viewBox="0 0 176 128" version="1.1" xmlns="http://www.w3.org/2000/svg" xmlns:xlink="http://www.w3.org/1999/xlink">
    <path d="M126.544922,127.933594 L47.9121094,127.933594 C44.671875,127.933594 42.0449219,125.306641 42.0449219,122.066406 C42.0449219,118.826172 44.671875,116.199219 47.9121094,116.199219 L126.544922,116.199219 C146.970703,116.199219 163.589844,99.5800781 163.589844,79.1542969 C163.589844,58.7265625 146.970703,42.109375 126.544922,42.109375 L37.3730469,42.109375 C34.1328125,42.109375 31.5058594,39.4824219 31.5058594,36.2421875 C31.5058594,33.0019531 34.1328125,30.375 37.3730469,30.375 L126.542969,30.375 C139.525391,30.375 151.759766,35.4609375 160.998047,44.6992188 C170.234375,53.9355469 175.322266,66.171875 175.322266,79.1542969 C175.322266,92.1367188 170.234375,104.375 160.998047,113.611328 C151.761719,122.847656 139.525391,127.933594 126.544922,127.933594 L126.544922,127.933594 Z" id="路径"></path>
    <path d="M3.02734375,29.3867187 L39.7050781,1.25585937 C43.6503906,-1.77148438 48.5839844,2.01171875 48.5839844,8.06445312 L48.5839844,64.3261719 C48.5839844,70.3789062 43.6523437,74.1621094 39.7050781,71.1347656 L3.02734375,43.0058594 C-0.91796875,39.9785156 -0.91796875,32.4140625 3.02734375,29.3867187 Z" id="路径"></path>
</svg>